<?xml version="1.0" standalone="no"?>
<svg xmlns:xlink="http://www.w3.org/1999/xlink" id="wave" style="transform:rotate(180deg); transition: 0.3s" viewBox="0 0 1440 100" version="1.1" xmlns="http://www.w3.org/2000/svg"><defs><linearGradient id="sw-gradient-0" x1="0" x2="0" y1="1" y2="0"><stop stop-color="rgba(225, 120, 70, 1)" offset="0%"/><stop stop-color="rgba(225, 120, 70, 1)" offset="100%"/></linearGradient></defs><path style="transform:translate(0, 0px); opacity:1" fill="url(#sw-gradient-0)" d="M0,30L60,36.7C120,43,240,57,360,63.3C480,70,600,70,720,60C840,50,960,30,1080,23.3C1200,17,1320,23,1440,28.3C1560,33,1680,37,1800,36.7C1920,37,2040,33,2160,36.7C2280,40,2400,50,2520,46.7C2640,43,2760,27,2880,31.7C3000,37,3120,63,3240,63.3C3360,63,3480,37,3600,26.7C3720,17,3840,23,3960,36.7C4080,50,4200,70,4320,76.7C4440,83,4560,77,4680,68.3C4800,60,4920,50,5040,38.3C5160,27,5280,13,5400,21.7C5520,30,5640,60,5760,66.7C5880,73,6000,57,6120,46.7C6240,37,6360,33,6480,30C6600,27,6720,23,6840,18.3C6960,13,7080,7,7200,18.3C7320,30,7440,60,7560,66.7C7680,73,7800,57,7920,48.3C8040,40,8160,40,8280,46.7C8400,53,8520,67,8580,73.3L8640,80L8640,100L8580,100C8520,100,8400,100,8280,100C8160,100,8040,100,7920,100C7800,100,7680,100,7560,100C7440,100,7320,100,7200,100C7080,100,6960,100,6840,100C6720,100,6600,100,6480,100C6360,100,6240,100,6120,100C6000,100,5880,100,5760,100C5640,100,5520,100,5400,100C5280,100,5160,100,5040,100C4920,100,4800,100,4680,100C4560,100,4440,100,4320,100C4200,100,4080,100,3960,100C3840,100,3720,100,3600,100C3480,100,3360,100,3240,100C3120,100,3000,100,2880,100C2760,100,2640,100,2520,100C2400,100,2280,100,2160,100C2040,100,1920,100,1800,100C1680,100,1560,100,1440,100C1320,100,1200,100,1080,100C960,100,840,100,720,100C600,100,480,100,360,100C240,100,120,100,60,100L0,100Z"/></svg>